 <svg
      xmlns="http://www.w3.org/2000/svg"
      width="64"
      height="64"
      viewBox="0 0 64 64"
      fill="none"
    >
      <path
        opacity="0.2"
        d="M45.9 37.9C36 48 10.9525 55.75 10.9525 55.75C10.5746 55.9496 10.1427 56.0228 9.72012 55.9591C9.29755 55.8953 8.9065 55.6979 8.60431 55.3957C8.30212 55.0935 8.10468 54.7024 8.04091 54.2799C7.97715 53.8573 8.05042 53.4254 8.25 53.0475C8.25 53.0475 16 28 26.1 18.1C28.7256 15.4743 32.2868 13.9993 36 13.9993C39.7132 13.9993 43.2744 15.4743 45.9 18.1C48.5256 20.7256 50.0007 24.2868 50.0007 28C50.0007 31.7132 48.5256 35.2743 45.9 37.9Z"
        fill="#61E3EC"
      />
      <path
        d="M58 16H50.8275L57.415 9.415C57.6008 9.22918 57.7482 9.00858 57.8488 8.76579C57.9494 8.52301 58.0011 8.26279 58.0011 8C58.0011 7.73721 57.9494 7.47699 57.8488 7.23421C57.7482 6.99142 57.6008 6.77082 57.415 6.585C57.2292 6.39918 57.0086 6.25178 56.7658 6.15121C56.523 6.05065 56.2628 5.99889 56 5.99889C55.7372 5.99889 55.477 6.05065 55.2342 6.15121C54.9914 6.25178 54.7708 6.39918 54.585 6.585L48 13.1725V6C48 5.46957 47.7893 4.96086 47.4142 4.58579C47.0392 4.21071 46.5304 4 46 4C45.4696 4 44.9609 4.21071 44.5858 4.58579C44.2107 4.96086 44 5.46957 44 6V14.1425C40.9525 12.3832 37.41 11.6776 33.921 12.135C30.432 12.5924 27.1911 14.1872 24.7 16.6725C14.675 26.52 7.13751 49.9425 6.40251 52.285C6.05597 53.0289 5.9466 53.8613 6.08925 54.6695C6.2319 55.4776 6.61965 56.2223 7.19993 56.8026C7.7802 57.3829 8.52491 57.7706 9.33304 57.9133C10.1412 58.0559 10.9736 57.9465 11.7175 57.6C14.06 56.865 37.5125 49.3175 47.335 39.2975C49.8186 36.8057 51.4116 33.5648 51.8676 30.0764C52.3236 26.5879 51.6171 23.0465 49.8575 20H58C58.5304 20 59.0392 19.7893 59.4142 19.4142C59.7893 19.0391 60 18.5304 60 18C60 17.4696 59.7893 16.9609 59.4142 16.5858C59.0392 16.2107 58.5304 16 58 16ZM44.47 36.5C42.235 38.78 39.1575 40.95 35.7575 42.9325L29.4125 36.585C29.2267 36.3992 29.0061 36.2518 28.7633 36.1512C28.5205 36.0506 28.2603 35.9989 27.9975 35.9989C27.7347 35.9989 27.4745 36.0506 27.2317 36.1512C26.9889 36.2518 26.7683 36.3992 26.5825 36.585C26.3967 36.7708 26.2493 36.9914 26.1487 37.2342C26.0482 37.477 25.9964 37.7372 25.9964 38C25.9964 38.2628 26.0482 38.523 26.1487 38.7658C26.2493 39.0086 26.3967 39.2292 26.5825 39.415L32.105 44.9375C21.8875 50.235 10.525 53.7925 10.355 53.845C10.2319 53.885 10.113 53.9369 10 54C10.0604 53.8875 10.1098 53.7695 10.1475 53.6475C10.22 53.415 17.1475 31.2525 26.1475 20.98L34.59 29.4225C34.9653 29.7978 35.4743 30.0086 36.005 30.0086C36.5357 30.0086 37.0447 29.7978 37.42 29.4225C37.7953 29.0472 38.0061 28.5382 38.0061 28.0075C38.0061 27.4768 37.7953 26.9678 37.42 26.5925L29.045 18.22C31.4987 16.4742 34.5192 15.7147 37.5068 16.0924C40.4945 16.4701 43.2309 17.9573 45.173 20.2589C47.1151 22.5604 48.1208 25.508 47.9906 28.5166C47.8603 31.5252 46.6037 34.3749 44.47 36.5Z"
        fill="#61E3EC"
      />
    </svg>