<svg
      xmlns="http://www.w3.org/2000/svg"
      width="67"
      height="67"
      viewBox="0 0 50 52"
      fill="none"
    >
      <path
        d="M35.2151 28.1932H14.6954C14.3698 28.1932 14.114 27.9374 14.114 27.6119C14.114 27.2863 14.3698 27.0305 14.6954 27.0305H35.2039C35.5294 27.0305 35.7852 27.2863 35.7852 27.6119C35.7852 27.9374 35.5294 28.1932 35.2155 28.1932H35.2151ZM35.2151 24.1241H14.6954C14.3698 24.1241 14.114 23.8683 14.114 23.5428C14.114 23.2172 14.3698 22.9614 14.6954 22.9614H35.2039C35.5294 22.9614 35.7852 23.2172 35.7852 23.5428C35.7852 23.8683 35.5294 24.1241 35.2155 24.1241H35.2151Z"
        fill="#61E3EC"
      />
      <path
        d="M13.5444 33.4829H12.254C11.3008 33.4829 10.5217 32.7041 10.5217 31.7505V19.4148C10.5217 18.4616 11.3004 17.6824 12.254 17.6824H13.5444C14.4976 17.6824 15.2768 18.4612 15.2768 19.4148V31.7505C15.2768 32.7041 14.5093 33.4829 13.5444 33.4829ZM12.254 18.8452C11.9402 18.8452 11.6844 19.101 11.6844 19.4149V31.7618C11.6844 32.0757 11.9402 32.3315 12.254 32.3315H13.5444C13.8583 32.3315 14.1141 32.0757 14.1141 31.7618V19.4149C14.1141 19.101 13.8583 18.8452 13.5444 18.8452H12.254Z"
        fill="#61E3EC"
      />
      <path
        d="M9.95133 31.2163H8.66095C7.70775 31.2163 6.92859 30.4376 6.92859 29.484V21.6827C6.92859 20.7295 7.70736 19.9503 8.66095 19.9503H9.95133C10.9045 19.9503 11.6837 20.7291 11.6837 21.6827C11.6837 22.0082 11.4279 22.264 11.1023 22.264C10.7768 22.264 10.521 22.0082 10.521 21.6827C10.521 21.3688 10.2652 21.113 9.95132 21.113L8.66095 21.1134C8.3471 21.1134 8.09127 21.3692 8.09127 21.683V29.4843C8.09127 29.7982 8.3471 30.054 8.66095 30.054H9.95132C10.2652 30.054 10.521 29.7982 10.521 29.4843C10.521 29.1588 10.7768 28.903 11.1023 28.903C11.4279 28.903 11.6837 29.1588 11.6837 29.4843C11.6837 30.4376 10.9049 31.2163 9.95133 31.2163Z"
        fill="#61E3EC"
      />
      <path
        d="M6.35923 29.6468H5.06885C4.11564 29.6468 3.33649 28.868 3.33649 27.9144V23.2524C3.33649 22.2992 4.11526 21.52 5.06885 21.52H6.35923C7.31244 21.52 8.09159 22.2988 8.09159 23.2524C8.09159 23.5779 7.83577 23.8337 7.51024 23.8337C7.18472 23.8337 6.92889 23.5779 6.92889 23.2524C6.92889 22.9385 6.67307 22.6827 6.35922 22.6827H5.06884C4.75499 22.6827 4.49917 22.9385 4.49917 23.2524V27.9144C4.49917 28.2283 4.75499 28.4841 5.06884 28.4841H6.35922C6.67307 28.4841 6.92889 28.2283 6.92889 27.9144C6.92889 27.5889 7.18472 27.3331 7.51024 27.3331C7.83577 27.3331 8.09159 27.5889 8.09159 27.9144C8.09159 28.868 7.31245 29.6468 6.35923 29.6468Z"
        fill="#61E3EC"
      />
      <path
        d="M3.918 28.1932H0.581351C0.255824 28.1932 0 27.9374 0 27.6119V23.5428C0 23.2172 0.255824 22.9614 0.581351 22.9614H3.918C4.24353 22.9614 4.49935 23.2172 4.49935 23.5428C4.49935 23.8683 4.24353 24.1241 3.918 24.1241H1.16273V27.0305H3.918C4.24353 27.0305 4.49935 27.2863 4.49935 27.6118C4.49935 27.9373 4.24353 28.1932 3.918 28.1932Z"
        fill="#61E3EC"
      />
      <path
        d="M35.2151 10.521H14.6954C14.3698 10.521 14.114 10.2652 14.114 9.93969C14.114 9.61416 14.3698 9.35834 14.6954 9.35834H35.2039C35.5294 9.35834 35.7852 9.61416 35.7852 9.93969C35.7852 10.2652 35.5294 10.521 35.2155 10.521H35.2151ZM35.2151 6.45195H14.6954C14.3698 6.45195 14.114 6.19612 14.114 5.8706C14.114 5.54507 14.3698 5.28925 14.6954 5.28925H35.2039C35.5294 5.28925 35.7852 5.54507 35.7852 5.8706C35.7852 6.19612 35.5294 6.45195 35.2155 6.45195H35.2151Z"
        fill="#61E3EC"
      />
      <path
        d="M13.1492 15.8117H11.4169C10.2425 15.8117 9.28931 14.8585 9.28931 13.6841V2.12755C9.28931 0.953208 10.2425 0 11.4169 0H13.1492C14.3236 0 15.2768 0.953208 15.2768 2.12755V13.672C15.2768 14.8576 14.3236 15.8109 13.1492 15.8109V15.8117ZM11.4169 1.16276C10.8822 1.16276 10.452 1.59302 10.452 2.12764V13.6721C10.452 14.2067 10.8822 14.637 11.4169 14.637H13.1492C13.6839 14.637 14.1141 14.2067 14.1141 13.6721V2.12764C14.1141 1.593 13.6838 1.16276 13.1492 1.16276H11.4169Z"
        fill="#61E3EC"
      />
      <path
        d="M8.32378 12.1149H6.59142C5.41707 12.1149 4.46387 11.1617 4.46387 9.98739V5.82524C4.46387 4.6509 5.41707 3.69769 6.59142 3.69769H8.32378C9.49813 3.69769 10.4513 4.6509 10.4513 5.82524C10.4513 6.15077 10.1955 6.40659 9.86998 6.40659C9.54446 6.40659 9.28863 6.15077 9.28863 5.82524C9.28863 5.2906 8.85837 4.86036 8.32375 4.86036L6.59138 4.85999C6.05674 4.85999 5.62649 5.29026 5.62649 5.82488V9.97534C5.62649 10.51 6.05676 10.9402 6.59138 10.9402H8.32375C8.85838 10.9402 9.28863 10.51 9.28863 9.97534C9.28863 9.64982 9.54446 9.39399 9.86998 9.39399C10.1955 9.39399 10.4513 9.64982 10.4513 9.97534C10.4513 11.1614 9.49813 12.1149 8.32378 12.1149Z"
        fill="#61E3EC"
      />
      <path
        d="M38.4945 15.8117H36.7621C35.5878 15.8117 34.6346 14.8585 34.6346 13.6841V2.12755C34.6346 0.953208 35.5878 0 36.7621 0H38.4945C39.6688 0 40.622 0.953208 40.622 2.12755V13.672C40.622 14.8576 39.6688 15.8109 38.4945 15.8109V15.8117ZM36.7621 1.16276C36.2275 1.16276 35.7972 1.59302 35.7972 2.12764V13.6721C35.7972 14.2067 36.2275 14.637 36.7621 14.637H38.4945C39.0291 14.637 39.4594 14.2067 39.4594 13.6721V2.12764C39.4594 1.593 39.0291 1.16276 38.4945 1.16276H36.7621Z"
        fill="#61E3EC"
      />
      <path
        d="M43.331 12.1149H41.5986C40.4243 12.1149 39.4711 11.1617 39.4711 9.98739C39.4711 9.66186 39.7269 9.40603 40.0524 9.40603C40.3779 9.40603 40.6338 9.66186 40.6338 9.98739C40.6338 10.522 41.064 10.9523 41.5987 10.9523H43.331C43.8657 10.9523 44.2959 10.522 44.2959 9.98739V5.82524C44.2959 5.2906 43.8656 4.86036 43.331 4.86036H41.5987C41.064 4.86036 40.6338 5.29062 40.6338 5.82524C40.6338 6.15077 40.3779 6.40659 40.0524 6.40659C39.7269 6.40659 39.4711 6.15077 39.4711 5.82524C39.4711 4.6509 40.4243 3.69769 41.5986 3.69769H43.331C44.5053 3.69769 45.4585 4.6509 45.4585 5.82524V9.97571C45.4585 11.1614 44.505 12.1149 43.331 12.1149Z"
        fill="#61E3EC"
      />
      <path
        d="M35.2151 45.8766H14.6954C14.3698 45.8766 14.114 45.6208 14.114 45.2952C14.114 44.9697 14.3698 44.7139 14.6954 44.7139H35.2039C35.5294 44.7139 35.7852 44.9697 35.7852 45.2952C35.7852 45.6208 35.5294 45.8766 35.2155 45.8766H35.2151ZM35.2151 41.8071H14.6954C14.3698 41.8071 14.114 41.5513 14.114 41.2258C14.114 40.9002 14.3698 40.6444 14.6954 40.6444H35.2039C35.5294 40.6444 35.7852 40.9002 35.7852 41.2258C35.7852 41.5517 35.5294 41.8071 35.2155 41.8071H35.2151Z"
        fill="#61E3EC"
      />
      <path
        d="M13.1492 51.1662H11.4169C10.2425 51.1662 9.28931 50.213 9.28931 49.0387V37.4943C9.28931 36.3199 10.2425 35.3667 11.4169 35.3667H13.1492C14.3236 35.3667 15.2768 36.3199 15.2768 37.4943V49.0387C15.2768 50.213 14.3236 51.1662 13.1492 51.1662ZM11.4169 36.5173C10.8822 36.5173 10.452 36.9476 10.452 37.4822V49.0266C10.452 49.5613 10.8822 49.9915 11.4169 49.9915H13.1492C13.6839 49.9915 14.1141 49.5613 14.1141 49.0266V37.4822C14.1141 36.9476 13.6838 36.5173 13.1492 36.5173H11.4169Z"
        fill="#61E3EC"
      />
      <path
        d="M8.32378 47.4694H6.59142C5.41707 47.4694 4.46387 46.5162 4.46387 45.3419V41.1914C4.46387 40.0171 5.41707 39.0638 6.59142 39.0638H8.32378C9.49813 39.0638 10.4513 40.0171 10.4513 41.1914C10.4513 41.5169 10.1955 41.7727 9.86998 41.7727C9.54446 41.7727 9.28863 41.5169 9.28863 41.1914C9.28863 40.6568 8.85837 40.2265 8.32375 40.2265H6.59138C6.05674 40.2265 5.62649 40.6568 5.62649 41.1914V45.3419C5.62649 45.8765 6.05676 46.3067 6.59138 46.3067H8.32375C8.85838 46.3067 9.28863 45.8765 9.28863 45.3419C9.28863 45.0163 9.54446 44.7605 9.86998 44.7605C10.1955 44.7605 10.4513 45.0163 10.4513 45.3419C10.4513 46.5162 9.49813 47.4694 8.32378 47.4694Z"
        fill="#61E3EC"
      />
      <path
        d="M38.4945 51.1662H36.7621C35.5878 51.1662 34.6346 50.213 34.6346 49.0387V37.4943C34.6346 36.3199 35.5878 35.3667 36.7621 35.3667H38.4945C39.6688 35.3667 40.622 36.3199 40.622 37.4943V49.0387C40.622 50.213 39.6688 51.1662 38.4945 51.1662ZM36.7621 36.5173C36.2275 36.5173 35.7972 36.9476 35.7972 37.4822V49.0266C35.7972 49.5613 36.2275 49.9915 36.7621 49.9915H38.4945C39.0291 49.9915 39.4594 49.5613 39.4594 49.0266V37.4822C39.4594 36.9476 39.0291 36.5173 38.4945 36.5173H36.7621Z"
        fill="#61E3EC"
      />
      <path
        d="M43.331 47.4694H41.5986C40.4243 47.4694 39.4711 46.5162 39.4711 45.3419C39.4711 45.0163 39.7269 44.7605 40.0524 44.7605C40.3779 44.7605 40.6338 45.0163 40.6338 45.3419C40.6338 45.8765 41.064 46.3067 41.5987 46.3067H43.331C43.8657 46.3067 44.2959 45.8765 44.2959 45.3419V41.1914C44.2959 40.6568 43.8656 40.2265 43.331 40.2265H41.5987C41.064 40.2265 40.6338 40.6568 40.6338 41.1914C40.6338 41.5169 40.3779 41.7727 40.0524 41.7727C39.7269 41.7727 39.4711 41.5169 39.4711 41.1914C39.4711 40.0171 40.4243 39.0638 41.5986 39.0638H43.331C44.5053 39.0638 45.4585 40.0171 45.4585 41.1914V45.3419C45.4585 46.5162 44.505 47.4694 43.331 47.4694Z"
        fill="#61E3EC"
      />
      <path
        d="M37.6573 33.4829H36.3669C35.4137 33.4829 34.6346 32.7041 34.6346 31.7505V19.4148C34.6346 18.4616 35.4134 17.6824 36.3669 17.6824H37.6573C38.6105 17.6824 39.3897 18.4612 39.3897 19.4148V31.7505C39.3897 32.7041 38.6109 33.4829 37.6573 33.4829ZM36.3669 18.8452C36.0531 18.8452 35.7973 19.101 35.7973 19.4149V31.7618C35.7973 32.0757 36.0531 32.3315 36.3669 32.3315H37.6573C37.9712 32.3315 38.227 32.0757 38.227 31.7618V19.4149C38.227 19.101 37.9712 18.8452 37.6573 18.8452H36.3669Z"
        fill="#61E3EC"
      />
      <path
        d="M41.2494 31.2163H39.9591C39.0058 31.2163 38.2267 30.4376 38.2267 29.484C38.2267 29.1585 38.4825 28.9026 38.808 28.9026C39.1336 28.9026 39.3894 29.1585 39.3894 29.484C39.3894 29.7978 39.6452 30.0537 39.9591 30.0537H41.2494C41.5633 30.0537 41.8191 29.7978 41.8191 29.484V21.6827C41.8191 21.3688 41.5633 21.113 41.2494 21.113H39.9591C39.6452 21.113 39.3894 21.3688 39.3894 21.6827C39.3894 22.0082 39.1336 22.264 38.808 22.264C38.4825 22.264 38.2267 22.0082 38.2267 21.6827C38.2267 20.7295 39.0055 19.9503 39.9591 19.9503H41.2494C42.2026 19.9503 42.9818 20.7291 42.9818 21.6827V29.484C42.9818 30.4376 42.203 31.2163 41.2494 31.2163Z"
        fill="#61E3EC"
      />
      <path
        d="M44.8415 29.6468H43.5511C42.5979 29.6468 41.8188 28.868 41.8188 27.9144C41.8188 27.5889 42.0746 27.3331 42.4001 27.3331C42.7257 27.3331 42.9815 27.5889 42.9815 27.9144C42.9815 28.2283 43.2373 28.4841 43.5512 28.4841H44.8415C45.1554 28.4841 45.4112 28.2283 45.4112 27.9144V23.2524C45.4112 22.9385 45.1554 22.6827 44.8415 22.6827H43.5512C43.2373 22.6827 42.9815 22.9385 42.9815 23.2524C42.9815 23.5779 42.7257 23.8337 42.4001 23.8337C42.0746 23.8337 41.8188 23.5779 41.8188 23.2524C41.8188 22.2992 42.5976 21.52 43.5511 21.52H44.8415C45.7947 21.52 46.5739 22.2988 46.5739 23.2524V27.9144C46.5739 28.868 45.7951 29.6468 44.8415 29.6468Z"
        fill="#61E3EC"
      />
      <path
        d="M49.3296 28.1932H45.993C45.6674 28.1932 45.4116 27.9373 45.4116 27.6118C45.4116 27.2863 45.6674 27.0305 45.993 27.0305H48.7482V24.1241H45.993C45.6674 24.1241 45.4116 23.8683 45.4116 23.5428C45.4116 23.2172 45.6674 22.9614 45.993 22.9614H49.3296C49.6552 22.9614 49.911 23.2172 49.911 23.5428V27.6119C49.911 27.9374 49.6552 28.1932 49.3296 28.1932Z"
        fill="#61E3EC"
      />
    </svg>