  <svg
      xmlns="http://www.w3.org/2000/svg"
      width="64"
      height="64"
      viewBox="0 0 42 52"
      fill="none"
    >
      <path
        d="M13.088 48.1534L17.5163 43.6127L12.2701 38.2334L7.8418 42.774L13.088 48.1534ZM15.2034 43.6127L13.088 45.7818L10.1547 42.774L12.2701 40.605L15.2034 43.6127Z"
        fill="#61E3EC"
      />
      <path
        d="M41.2364 6.70964L34.6942 0.0014977L32.3864 0L0 32.356V33.8959L1.29742 35.2259L0 36.5562V38.9113L11.9141 52H14.2446L21.2673 44.7987V42.4495L14.1978 34.4769L41.2364 6.70964ZM1.6361 33.2014V33.064L6.19618 28.508L10.0552 32.4649L11.2116 31.2791L7.36796 27.3379L8.68248 26.0252L10.8738 28.2721L12.0302 27.0863L9.85464 24.8555L11.1692 23.5428L14.9647 27.4346L16.1211 26.2488L12.3413 22.3731L13.6558 21.0604L15.7833 23.2418L16.9397 22.0561L14.8276 19.8904L16.1421 18.5777L19.8737 22.4039L21.0302 21.2181L17.3143 17.408L18.6288 16.0953L20.6927 18.2115L21.8491 17.0257L19.801 14.9256L21.1155 13.6129L24.7831 17.3736L25.9396 16.1878L22.2873 12.4428L23.6018 11.1301L25.6018 13.1809L26.7583 11.9951L24.774 9.96042L26.0885 8.64772L29.6923 12.3429L30.8487 11.1571L27.2541 7.46902L28.5686 6.15632L30.5047 8.14153L31.6611 6.95573L29.7397 4.98548L31.0542 3.67278L34.5944 7.30282L35.7508 6.11702L32.2256 2.50233L33.0497 1.67784H34.0167L38.9229 6.7101L12.7811 33.5574L3.78357 32.6768L2.45334 34.0408L1.6361 33.2014ZM1.6361 37.2504L4.39593 34.4205L11.284 35.0949L4.81294 41.7401L1.6361 38.2501V37.2504ZM19.6311 43.0989V44.1046L13.5669 50.3226H12.6256L5.93079 42.9679L13.0411 35.6651L19.6311 43.0989Z"
        fill="#61E3EC"
      />
    </svg>