<svg width="64" height="64" viewBox="0 0 64 64" fill="none" xmlns="http://www.w3.org/2000/svg">
<g id="PersonSimple">
<path id="Vector" opacity="0.2" d="M38 12C38 13.1867 37.6481 14.3467 36.9888 15.3334C36.3295 16.3201 35.3925 17.0892 34.2961 17.5433C33.1997 17.9974 31.9933 18.1162 30.8295 17.8847C29.6656 17.6532 28.5965 17.0818 27.7574 16.2426C26.9182 15.4035 26.3468 14.3344 26.1153 13.1705C25.8838 12.0067 26.0026 10.8003 26.4567 9.7039C26.9109 8.60754 27.6799 7.67047 28.6666 7.01118C29.6533 6.35189 30.8133 6 32 6C33.5913 6 35.1174 6.63214 36.2426 7.75736C37.3679 8.88258 38 10.4087 38 12Z" fill="#61E3EC"/>
<path id="Vector_2" d="M32 20C33.5823 20 35.129 19.5308 36.4446 18.6518C37.7602 17.7727 38.7856 16.5233 39.3911 15.0615C39.9966 13.5997 40.155 11.9911 39.8463 10.4393C39.5377 8.88743 38.7757 7.46197 37.6569 6.34315C36.5381 5.22433 35.1126 4.4624 33.5608 4.15372C32.0089 3.84504 30.4004 4.00347 28.9386 4.60897C27.4768 5.21447 26.2273 6.23985 25.3483 7.55544C24.4692 8.87103 24 10.4178 24 12C24 14.1217 24.8429 16.1566 26.3432 17.6569C27.8435 19.1571 29.8783 20 32 20ZM32 8C32.7912 8 33.5645 8.2346 34.2223 8.67413C34.8801 9.11365 35.3928 9.73836 35.6956 10.4693C35.9983 11.2002 36.0775 12.0044 35.9232 12.7804C35.7689 13.5563 35.3879 14.269 34.8285 14.8284C34.2691 15.3878 33.5563 15.7688 32.7804 15.9231C32.0045 16.0775 31.2002 15.9983 30.4693 15.6955C29.7384 15.3928 29.1137 14.8801 28.6742 14.2223C28.2346 13.5645 28 12.7911 28 12C28 10.9391 28.4215 9.92172 29.1716 9.17158C29.9218 8.42143 30.9392 8 32 8ZM57.715 33.03C57.5798 33.2559 57.4013 33.453 57.1898 33.6097C56.9782 33.7665 56.7378 33.88 56.4823 33.9436C56.2268 34.0073 55.9613 34.0199 55.7009 33.9806C55.4405 33.9414 55.1905 33.8511 54.965 33.715C54.8775 33.6625 46.1875 28.5675 33.995 28.0475V37.25L49.495 54.6825C49.6694 54.8795 49.8032 55.1089 49.8889 55.3576C49.9746 55.6063 50.0104 55.8694 49.9944 56.132C49.9784 56.3945 49.9108 56.6514 49.7955 56.8878C49.6802 57.1243 49.5195 57.3357 49.3225 57.51C49.1256 57.6843 48.8962 57.8182 48.6475 57.9038C48.3988 57.9895 48.1356 58.0254 47.8731 58.0093C47.6105 57.9933 47.3537 57.9258 47.1172 57.8105C46.8808 57.6952 46.6694 57.5345 46.495 57.3375L32 41L17.5 57.3275C17.3257 57.5245 17.1143 57.6852 16.8779 57.8005C16.6414 57.9158 16.3846 57.9833 16.122 57.9993C15.8595 58.0154 15.5963 57.9795 15.3476 57.8938C15.0989 57.8082 14.8695 57.6743 14.6725 57.5C14.4756 57.3257 14.3148 57.1143 14.1996 56.8778C14.0843 56.6414 14.0167 56.3845 14.0007 56.122C13.9847 55.8594 14.0205 55.5963 14.1062 55.3476C14.1919 55.0989 14.3257 54.8695 14.5 54.6725L30 37.25V28.045C17.75 28.565 9.12005 33.66 9.03005 33.715C8.5752 33.9882 8.03047 34.0695 7.51568 33.941C7.00089 33.8126 6.55822 33.4848 6.28505 33.03C6.01188 32.5752 5.93058 32.0304 6.05904 31.5156C6.1875 31.0008 6.5152 30.5582 6.97005 30.285C7.40005 30.0275 17.6125 24 32 24C46.3876 24 56.6 30.0275 57.03 30.285C57.2553 30.4202 57.4517 30.5985 57.6081 30.8096C57.7644 31.0208 57.8777 31.2607 57.9413 31.5156C58.0049 31.7705 58.0176 32.0354 57.9788 32.2953C57.94 32.5551 57.8504 32.8048 57.715 33.03Z" fill="#61E3EC"/>
</g>
</svg>
