<svg width="64" height="64" viewBox="0 0 64 64" fill="none" xmlns="http://www.w3.org/2000/svg">
<g id="Smiley">
<path id="Vector" opacity="0.2" d="M56 32C56 36.7468 54.5924 41.3869 51.9553 45.3337C49.3181 49.2805 45.5698 52.3566 41.1844 54.1731C36.799 55.9896 31.9734 56.4649 27.3178 55.5388C22.6623 54.6128 18.3859 52.327 15.0294 48.9706C11.673 45.6141 9.38721 41.3377 8.46116 36.6822C7.53512 32.0266 8.0104 27.201 9.8269 22.8156C11.6434 18.4302 14.7195 14.6819 18.6663 12.0447C22.6131 9.40758 27.2533 8 32 8C38.3652 8 44.4697 10.5286 48.9706 15.0294C53.4714 19.5303 56 25.6348 56 32Z" fill="#61E3EC"/>
<path id="Vector_2" d="M32 6C26.8577 6 21.8309 7.52487 17.5552 10.3818C13.2795 13.2387 9.94702 17.2994 7.97914 22.0502C6.01127 26.8011 5.49638 32.0288 6.49959 37.0723C7.50281 42.1159 9.97907 46.7486 13.6152 50.3848C17.2514 54.0209 21.8842 56.4972 26.9277 57.5004C31.9712 58.5036 37.1989 57.9887 41.9498 56.0209C46.7007 54.053 50.7613 50.7205 53.6182 46.4448C56.4751 42.1691 58 37.1423 58 32C57.9927 25.1066 55.2511 18.4976 50.3767 13.6233C45.5024 8.74889 38.8934 6.00728 32 6ZM32 54C27.6488 54 23.3953 52.7097 19.7775 50.2923C16.1596 47.8749 13.3398 44.439 11.6747 40.419C10.0095 36.3991 9.57386 31.9756 10.4227 27.708C11.2716 23.4404 13.3669 19.5204 16.4437 16.4437C19.5204 13.3669 23.4404 11.2716 27.708 10.4227C31.9756 9.57385 36.3991 10.0095 40.419 11.6747C44.439 13.3398 47.875 16.1596 50.2923 19.7775C52.7097 23.3953 54 27.6488 54 32C53.9934 37.8327 51.6734 43.4247 47.5491 47.549C43.4247 51.6734 37.8327 53.9934 32 54ZM20 27C20 26.4067 20.176 25.8266 20.5056 25.3333C20.8352 24.8399 21.3038 24.4554 21.852 24.2284C22.4001 24.0013 23.0033 23.9419 23.5853 24.0576C24.1672 24.1734 24.7018 24.4591 25.1213 24.8787C25.5409 25.2982 25.8266 25.8328 25.9424 26.4147C26.0581 26.9967 25.9987 27.5999 25.7717 28.1481C25.5446 28.6962 25.1601 29.1648 24.6667 29.4944C24.1734 29.8241 23.5934 30 23 30C22.2044 30 21.4413 29.6839 20.8787 29.1213C20.3161 28.5587 20 27.7956 20 27ZM44 27C44 27.5933 43.8241 28.1734 43.4944 28.6667C43.1648 29.1601 42.6962 29.5446 42.1481 29.7716C41.5999 29.9987 40.9967 30.0581 40.4147 29.9424C39.8328 29.8266 39.2982 29.5409 38.8787 29.1213C38.4591 28.7018 38.1734 28.1672 38.0577 27.5853C37.9419 27.0033 38.0013 26.4001 38.2284 25.8519C38.4554 25.3038 38.84 24.8352 39.3333 24.5056C39.8266 24.1759 40.4067 24 41 24C41.7957 24 42.5587 24.3161 43.1213 24.8787C43.6839 25.4413 44 26.2044 44 27ZM43.73 39C41.1575 43.4475 36.8825 46 32 46C27.1175 46 22.8425 43.45 20.27 39C20.1253 38.7724 20.0281 38.5178 19.9844 38.2516C19.9406 37.9855 19.9511 37.7132 20.0153 37.4512C20.0794 37.1892 20.1959 36.9429 20.3578 36.7271C20.5196 36.5113 20.7234 36.3305 20.957 36.1955C21.1905 36.0605 21.4489 35.9742 21.7167 35.9416C21.9844 35.9091 22.256 35.9311 22.5151 36.0062C22.7741 36.0814 23.0153 36.2082 23.2241 36.379C23.4329 36.5497 23.605 36.761 23.73 37C25.5975 40.2275 28.5325 42 32 42C35.4675 42 38.4025 40.225 40.27 37C40.395 36.761 40.5671 36.5497 40.7759 36.379C40.9847 36.2082 41.2259 36.0814 41.4849 36.0062C41.744 35.9311 42.0156 35.9091 42.2833 35.9416C42.5511 35.9742 42.8095 36.0605 43.0431 36.1955C43.2766 36.3305 43.4804 36.5113 43.6422 36.7271C43.8041 36.9429 43.9206 37.1892 43.9848 37.4512C44.0489 37.7132 44.0594 37.9855 44.0157 38.2516C43.9719 38.5178 43.8747 38.7724 43.73 39Z" fill="#61E3EC"/>
</g>
</svg>
