<svg width="64" height="40" viewBox="0 0 64 40" fill="none" xmlns="http://www.w3.org/2000/svg">
<path id="Vector" d="M62 18H60V10C60 8.93913 59.5786 7.92172 58.8284 7.17157C58.0783 6.42143 57.0609 6 56 6H52V4C52 2.93913 51.5786 1.92172 50.8284 1.17157C50.0783 0.421427 49.0609 0 48 0H42C40.9391 0 39.9217 0.421427 39.1716 1.17157C38.4214 1.92172 38 2.93913 38 4V18H26V4C26 2.93913 25.5786 1.92172 24.8284 1.17157C24.0783 0.421427 23.0609 0 22 0H16C14.9391 0 13.9217 0.421427 13.1716 1.17157C12.4214 1.92172 12 2.93913 12 4V6H8C6.93913 6 5.92172 6.42143 5.17157 7.17157C4.42143 7.92172 4 8.93913 4 10V18H2C1.46957 18 0.960859 18.2107 0.585786 18.5858C0.210714 18.9609 0 19.4696 0 20C0 20.5304 0.210714 21.0391 0.585786 21.4142C0.960859 21.7893 1.46957 22 2 22H4V30C4 31.0609 4.42143 32.0783 5.17157 32.8284C5.92172 33.5786 6.93913 34 8 34H12V36C12 37.0609 12.4214 38.0783 13.1716 38.8284C13.9217 39.5786 14.9391 40 16 40H22C23.0609 40 24.0783 39.5786 24.8284 38.8284C25.5786 38.0783 26 37.0609 26 36V22H38V36C38 37.0609 38.4214 38.0783 39.1716 38.8284C39.9217 39.5786 40.9391 40 42 40H48C49.0609 40 50.0783 39.5786 50.8284 38.8284C51.5786 38.0783 52 37.0609 52 36V34H56C57.0609 34 58.0783 33.5786 58.8284 32.8284C59.5786 32.0783 60 31.0609 60 30V22H62C62.5304 22 63.0391 21.7893 63.4142 21.4142C63.7893 21.0391 64 20.5304 64 20C64 19.4696 63.7893 18.9609 63.4142 18.5858C63.0391 18.2107 62.5304 18 62 18ZM8 30V10H12V30H8ZM22 36H16V4H22V36ZM48 36H42V4H48V31.9575C48 31.9725 48 31.985 48 32C48 32.015 48 32.03 48 32.0425V36ZM56 30H52V10H56V30Z" fill="url(#paint0_linear_1_2305)"/>
<defs>
<linearGradient id="paint0_linear_1_2305" x1="1.75238e-06" y1="20" x2="41.3256" y2="-6.71189" gradientUnits="userSpaceOnUse">
<stop stop-color="#47F6AB"/>
<stop offset="1" stop-color="#60E3EB"/>
</linearGradient>
</defs>
</svg>
