<svg
      xmlns="http://www.w3.org/2000/svg"
      width="32"
      height="32"
      viewBox="0 0 32 32"
      fill="none"
    >
      <path
        d="M15.9584 29.3334C23.3221 29.3334 29.2917 23.3638 29.2917 16.0001C29.2917 8.63628 23.3221 2.66675 15.9584 2.66675C8.59453 2.66675 2.625 8.63628 2.625 16.0001C2.625 23.3638 8.59453 29.3334 15.9584 29.3334Z"
        fill="url(#paint0_linear_8_4239)"
      />
      <path
        d="M19.9592 13.6416L16.0925 11.4149C15.1325 10.8549 13.9725 10.8549 13.0125 11.4149C12.0525 11.9749 11.4792 12.9615 11.4792 14.0816V18.5482C11.4792 19.6549 12.0525 20.6549 13.0125 21.2149C13.4925 21.4949 14.0259 21.6282 14.5459 21.6282C15.0792 21.6282 15.5992 21.4949 16.0792 21.2149L19.9459 18.9882C20.9059 18.4282 21.4792 17.4416 21.4792 16.3216C21.5059 15.2016 20.9325 14.2016 19.9592 13.6416Z"
        fill="white"
      />
      <defs>
        <linearGradient
          id="paint0_linear_8_4239"
          x1="2.625"
          y1="16.0001"
          x2="23.6129"
          y2="7.52127"
          gradientUnits="userSpaceOnUse"
        >
          <stop stop-color="#47F6AB" />
          <stop offset="1" stop-color="#60E3EB" />
        </linearGradient>
      </defs>
    </svg>