<svg
      xmlns="http://www.w3.org/2000/svg"
      width="32"
      height="32"
      viewBox="0 0 32 32"
      fill="none"
    >
      <g clip-path="url(#clip0_8_4245)">
        <path
          d="M25.9159 0.00731338C20.7857 0.459446 17 3.02015 14.7931 6.72205C13.3141 8.5761 10.3597 14.2365 9.28527 17.1997C7.33706 20.8845 5.63821 25.2688 4.30871 29.2211C3.49601 31.638 7.14514 33.2147 7.9625 30.787C8.95677 27.83 10.158 24.633 11.5154 21.6662C12.8625 24.6811 14.2313 27.6862 15.701 30.6437C16.8401 32.9395 20.2678 30.9261 19.1329 28.638C17.6197 25.5937 16.2142 22.5006 14.8293 19.3973C14.8469 19.3373 14.8692 19.2788 14.8878 19.2193C15.1185 19.285 15.373 19.3052 15.6534 19.2519C17.7723 18.8541 19.8912 18.4573 22.0117 18.0595C22.9175 17.8893 23.2646 16.8981 23.1219 16.1046C22.6935 13.7265 21.3387 12.0721 19.6522 10.5067C19.4019 9.65522 18.5669 8.90201 17.6404 8.15345C19.5188 5.11682 22.5854 3.46866 26.577 3.11689C28.6142 2.93841 27.9355 -0.170125 25.9159 0.00731338ZM18.1955 13.5242C18.7195 14.0695 19.1654 14.6432 19.5022 15.3074C18.4769 15.4998 17.4511 15.6918 16.4258 15.8842C16.9431 15.0513 17.5385 14.265 18.1955 13.5242Z"
          fill="url(#paint0_linear_8_4245)"
        />
        <path
          d="M22.5804 10.817C24.0875 10.817 25.3093 9.5953 25.3093 8.08821C25.3093 6.58111 24.0875 5.35938 22.5804 5.35938C21.0733 5.35938 19.8516 6.58111 19.8516 8.08821C19.8516 9.5953 21.0733 10.817 22.5804 10.817Z"
          fill="url(#paint1_linear_8_4245)"
        />
      </g>
      <defs>
        <linearGradient
          id="paint0_linear_8_4245"
          x1="4.19145"
          y1="16.0001"
          x2="24.0476"
          y2="10.0799"
          gradientUnits="userSpaceOnUse"
        >
          <stop stop-color="#47F6AB" />
          <stop offset="1" stop-color="#60E3EB" />
        </linearGradient>
        <linearGradient
          id="paint1_linear_8_4245"
          x1="19.8516"
          y1="8.08821"
          x2="24.147"
          y2="6.35292"
          gradientUnits="userSpaceOnUse"
        >
          <stop stop-color="#47F6AB" />
          <stop offset="1" stop-color="#60E3EB" />
        </linearGradient>
        <clipPath id="clip0_8_4245">
          <rect width="32" height="32" fill="white" />
        </clipPath>
      </defs>
    </svg>