<svg
      xmlns="http://www.w3.org/2000/svg"
      width="24"
      height="25"
      viewBox="0 0 24 25"
      fill="none"
    >
      <g clip-path="url(#clip0_8_4360)">
        <path
          d="M12 9.18848C11.2044 9.18848 10.4413 9.50455 9.87868 10.0672C9.31607 10.6298 9 11.3928 9 12.1885C9 12.9841 9.31607 13.7472 9.87868 14.3098C10.4413 14.8724 11.2044 15.1885 12 15.1885C12.7956 15.1885 13.5587 14.8724 14.1213 14.3098C14.6839 13.7472 15 12.9841 15 12.1885C15 11.3928 14.6839 10.6298 14.1213 10.0672C13.5587 9.50455 12.7956 9.18848 12 9.18848ZM12 7.18848C13.3261 7.18848 14.5979 7.71526 15.5355 8.65294C16.4732 9.59062 17 10.8624 17 12.1885C17 13.5146 16.4732 14.7863 15.5355 15.724C14.5979 16.6617 13.3261 17.1885 12 17.1885C10.6739 17.1885 9.40215 16.6617 8.46447 15.724C7.52678 14.7863 7 13.5146 7 12.1885C7 10.8624 7.52678 9.59062 8.46447 8.65294C9.40215 7.71526 10.6739 7.18848 12 7.18848ZM18.5 6.93848C18.5 7.27 18.3683 7.58794 18.1339 7.82236C17.8995 8.05678 17.5815 8.18848 17.25 8.18848C16.9185 8.18848 16.6005 8.05678 16.3661 7.82236C16.1317 7.58794 16 7.27 16 6.93848C16 6.60696 16.1317 6.28901 16.3661 6.05459C16.6005 5.82017 16.9185 5.68848 17.25 5.68848C17.5815 5.68848 17.8995 5.82017 18.1339 6.05459C18.3683 6.28901 18.5 6.60696 18.5 6.93848ZM12 4.18848C9.526 4.18848 9.122 4.19548 7.971 4.24648C7.187 4.28348 6.661 4.38848 6.173 4.57848C5.739 4.74648 5.426 4.94748 5.093 5.28148C4.78001 5.58388 4.53935 5.95306 4.389 6.36148C4.199 6.85148 4.094 7.37648 4.058 8.15948C4.006 9.26348 4 9.64948 4 12.1885C4 14.6625 4.007 15.0665 4.058 16.2175C4.095 17.0005 4.2 17.5275 4.389 18.0145C4.559 18.4495 4.759 18.7625 5.091 19.0945C5.428 19.4305 5.741 19.6315 6.171 19.7975C6.665 19.9885 7.191 20.0945 7.971 20.1305C9.075 20.1825 9.461 20.1885 12 20.1885C14.474 20.1885 14.878 20.1815 16.029 20.1305C16.811 20.0935 17.338 19.9885 17.826 19.7995C18.259 19.6305 18.574 19.4295 18.906 19.0975C19.243 18.7605 19.444 18.4475 19.61 18.0175C19.8 17.5245 19.906 16.9975 19.942 16.2175C19.994 15.1135 20 14.7275 20 12.1885C20 9.71448 19.993 9.31048 19.942 8.15948C19.905 7.37748 19.8 6.84948 19.61 6.36148C19.4593 5.95348 19.2191 5.58444 18.907 5.28148C18.6047 4.96832 18.2355 4.72764 17.827 4.57748C17.337 4.38748 16.811 4.28248 16.029 4.24648C14.925 4.19448 14.539 4.18848 12 4.18848ZM12 2.18848C14.717 2.18848 15.056 2.19848 16.122 2.24848C17.187 2.29848 17.912 2.46548 18.55 2.71348C19.21 2.96748 19.766 3.31148 20.322 3.86648C20.8305 4.36637 21.224 4.97107 21.475 5.63848C21.722 6.27548 21.89 7.00148 21.94 8.06648C21.987 9.13248 22 9.47148 22 12.1885C22 14.9055 21.99 15.2445 21.94 16.3105C21.89 17.3755 21.722 18.1005 21.475 18.7385C21.2247 19.4063 20.8311 20.0111 20.322 20.5105C19.822 21.0188 19.2173 21.4122 18.55 21.6635C17.913 21.9105 17.187 22.0785 16.122 22.1285C15.056 22.1755 14.717 22.1885 12 22.1885C9.283 22.1885 8.944 22.1785 7.878 22.1285C6.813 22.0785 6.088 21.9105 5.45 21.6635C4.78233 21.413 4.17753 21.0194 3.678 20.5105C3.16941 20.0107 2.77593 19.4059 2.525 18.7385C2.277 18.1015 2.11 17.3755 2.06 16.3105C2.013 15.2445 2 14.9055 2 12.1885C2 9.47148 2.01 9.13248 2.06 8.06648C2.11 7.00048 2.277 6.27648 2.525 5.63848C2.77524 4.97066 3.1688 4.3658 3.678 3.86648C4.17767 3.35771 4.78243 2.96421 5.45 2.71348C6.088 2.46548 6.812 2.29848 7.878 2.24848C8.944 2.20148 9.283 2.18848 12 2.18848Z"
          fill="url(#paint0_linear_8_4360)"
        />
      </g>
      <defs>
        <linearGradient
          id="paint0_linear_8_4360"
          x1="2"
          y1="12.1885"
          x2="17.7409"
          y2="5.8294"
          gradientUnits="userSpaceOnUse"
        >
          <stop stop-color="#47F6AB" />
          <stop offset="1" stop-color="#60E3EB" />
        </linearGradient>
        <clipPath id="clip0_8_4360">
          <rect
            width="24"
            height="24"
            fill="white"
            transform="translate(0 0.188477)"
          />
        </clipPath>
      </defs>
    </svg>