 <svg
      xmlns="http://www.w3.org/2000/svg"
      width="24"
      height="25"
      viewBox="0 0 24 25"
      fill="none"
    >
      <g clip-path="url(#clip0_8_4366)">
        <path
          d="M6.94141 5.1885C6.94114 5.71893 6.73017 6.22754 6.35491 6.60242C5.97965 6.97731 5.47084 7.18777 4.94041 7.1875C4.40997 7.18724 3.90137 6.97627 3.52649 6.60101C3.1516 6.22575 2.94114 5.71693 2.94141 5.1865C2.94167 4.65607 3.15264 4.14746 3.5279 3.77258C3.90316 3.39769 4.41197 3.18724 4.94241 3.1875C5.47284 3.18777 5.98144 3.39873 6.35633 3.77399C6.73121 4.14925 6.94167 4.65807 6.94141 5.1885ZM7.00141 8.6685H3.00141V21.1885H7.00141V8.6685ZM13.3214 8.6685H9.34141V21.1885H13.2814V14.6185C13.2814 10.9585 18.0514 10.6185 18.0514 14.6185V21.1885H22.0014V13.2585C22.0014 7.0885 14.9414 7.3185 13.2814 10.3485L13.3214 8.6685Z"
          fill="url(#paint0_linear_8_4366)"
        />
      </g>
      <defs>
        <linearGradient
          id="paint0_linear_8_4366"
          x1="2.94141"
          y1="12.188"
          x2="17.6918"
          y2="5.8785"
          gradientUnits="userSpaceOnUse"
        >
          <stop stop-color="#47F6AB" />
          <stop offset="1" stop-color="#60E3EB" />
        </linearGradient>
        <clipPath id="clip0_8_4366">
          <rect
            width="24"
            height="24"
            fill="white"
            transform="translate(0 0.188477)"
          />
        </clipPath>
      </defs>
    </svg>