<svg width="26" height="28" viewBox="0 0 26 28" fill="none" xmlns="http://www.w3.org/2000/svg">
<path d="M22.2362 3.83253C20.4201 2.00577 18.1026 0.759252 15.5773 0.25094C13.052 -0.257372 10.4327 -0.00459713 8.05117 0.977233C5.66969 1.95906 3.63328 3.62575 2.19998 5.7661C0.766675 7.90644 0.00100764 10.4241 0 13V20C0 20.7957 0.316071 21.5587 0.87868 22.1214C1.44129 22.684 2.20435 23 3 23H5C5.79565 23 6.55871 22.684 7.12132 22.1214C7.68393 21.5587 8 20.7957 8 20V15C8 14.2044 7.68393 13.4413 7.12132 12.8787C6.55871 12.3161 5.79565 12 5 12H2.045C2.23785 9.91495 3.02104 7.92804 4.30278 6.27216C5.58452 4.61629 7.31169 3.36007 9.28187 2.65074C11.2521 1.94141 13.3836 1.80835 15.4267 2.26717C17.4698 2.72598 19.3398 3.75766 20.8175 5.24128C22.6236 7.05666 23.7345 9.44886 23.9562 12H21C20.2044 12 19.4413 12.3161 18.8787 12.8787C18.3161 13.4413 18 14.2044 18 15V20C18 20.7957 18.3161 21.5587 18.8787 22.1214C19.4413 22.684 20.2044 23 21 23H24C24 23.7957 23.6839 24.5587 23.1213 25.1214C22.5587 25.684 21.7956 26 21 26H14C13.7348 26 13.4804 26.1054 13.2929 26.2929C13.1054 26.4805 13 26.7348 13 27C13 27.2653 13.1054 27.5196 13.2929 27.7071C13.4804 27.8947 13.7348 28 14 28H21C22.3261 28 23.5979 27.4732 24.5355 26.5356C25.4732 25.5979 26 24.3261 26 23V13C26.0065 11.2995 25.6774 9.6144 25.0316 8.04127C24.3857 6.46814 23.4358 5.03792 22.2362 3.83253ZM5 14C5.26522 14 5.51957 14.1054 5.70711 14.2929C5.89464 14.4805 6 14.7348 6 15V20C6 20.2653 5.89464 20.5196 5.70711 20.7071C5.51957 20.8947 5.26522 21 5 21H3C2.73478 21 2.48043 20.8947 2.29289 20.7071C2.10536 20.5196 2 20.2653 2 20V14H5ZM21 21C20.7348 21 20.4804 20.8947 20.2929 20.7071C20.1054 20.5196 20 20.2653 20 20V15C20 14.7348 20.1054 14.4805 20.2929 14.2929C20.4804 14.1054 20.7348 14 21 14H24V21H21Z" fill="#47F6AB"/>
</svg>
